<?xml version="1.0" standalone="no"?>
<!DOCTYPE svg PUBLIC "-//W3C//DTD SVG 20010904//EN"
 "http://www.w3.org/TR/2001/REC-SVG-20010904/DTD/svg10.dtd">
<svg version="1.0" xmlns="http://www.w3.org/2000/svg"
 width="225.000000pt" height="225.000000pt" viewBox="0 0 225.000000 225.000000"
 preserveAspectRatio="xMidYMid meet">

<g transform="translate(0.000000,225.000000) scale(0.100000,-0.100000)"
fill="#000000" stroke="none">
<path d="M603 1875 l-70 -64 35 -88 c31 -75 36 -100 37 -168 0 -44 -3 -93 -8
-110 -6 -25 -5 -27 4 -11 7 11 14 50 17 87 5 70 -19 172 -58 250 l-19 36 42
39 c23 22 54 50 68 63 l27 23 42 -31 c133 -96 312 -93 401 6 l24 27 -35 -29
c-109 -89 -262 -87 -389 5 -22 17 -43 30 -45 30 -2 0 -35 -29 -73 -65z"/>
<path d="M1580 1923 c-13 -10 -47 -29 -74 -45 -28 -15 -46 -28 -40 -28 6 0 39
17 75 39 l64 39 35 -28 c19 -16 50 -44 68 -63 l34 -35 -21 -40 c-12 -23 -21
-45 -21 -49 1 -4 12 14 26 41 l26 49 -59 59 c-74 76 -84 81 -113 61z"/>
<path d="M1175 1895 c52 -47 103 -65 180 -63 l70 1 -80 7 c-81 6 -102 13 -165
58 l-35 24 30 -27z"/>
<path d="M631 1846 l-43 -43 21 -41 c80 -157 63 -329 -49 -493 -22 -32 -40
-61 -40 -64 0 -3 137 -5 305 -5 l305 0 0 335 0 335 -40 -29 c-101 -73 -263
-61 -389 28 l-28 20 -42 -43z m263 -132 c15 -14 17 -14 22 0 7 18 60 22 84 6
11 -7 5 -10 -25 -11 l-40 -1 44 -9 c45 -9 97 -36 87 -46 -3 -3 -11 -1 -18 5
-7 5 -31 13 -53 17 l-40 6 33 -15 c36 -17 48 -37 38 -63 -6 -15 -11 -13 -32
15 -31 39 -48 42 -28 5 18 -36 18 -64 -1 -89 -14 -18 -14 -17 -15 13 0 41 -19
83 -38 83 -11 0 -13 -12 -9 -62 4 -35 6 -64 6 -65 1 -2 15 -3 32 -3 44 0 71
-36 85 -110 11 -62 2 -91 -15 -47 -15 39 -31 43 -31 8 0 -21 -5 -31 -15 -31
-11 0 -13 8 -9 30 5 25 2 31 -19 41 -41 19 -57 7 -47 -35 7 -32 6 -36 -12 -36
-10 0 -17 4 -13 9 3 5 0 21 -7 35 -11 25 -12 25 -30 10 -10 -10 -18 -25 -18
-36 0 -11 -7 -18 -19 -18 -19 0 -19 1 1 52 15 41 17 53 6 60 -21 13 -52 5 -56
-16 -3 -14 0 -17 13 -12 11 4 15 2 13 -6 -8 -22 -36 -20 -48 2 -9 17 -9 29 0
50 19 45 41 59 97 61 l51 2 4 61 c2 34 2 63 0 66 -8 11 -22 -28 -22 -62 0 -40
-13 -49 -28 -21 -11 18 0 66 20 91 12 16 11 16 -12 1 -14 -9 -31 -28 -38 -43
-18 -35 -28 -33 -36 9 -13 69 15 94 90 82 20 -4 32 -2 29 4 -4 5 -22 9 -41 9
-21 0 -33 4 -29 10 10 16 72 12 89 -6z"/>
<path d="M792 1668 c-21 -21 -13 -31 11 -15 13 8 32 17 42 20 14 3 10 5 -10 6
-17 0 -36 -4 -43 -11z"/>
<path d="M1554 1855 c-124 -81 -271 -84 -371 -8 l-33 24 0 -335 0 -336 305 0
c168 0 305 3 305 6 0 3 -14 25 -31 50 -48 71 -89 167 -101 239 -13 79 -3 151
36 247 l26 63 -43 41 -42 42 -51 -33z m81 -35 c28 -29 29 -31 13 -58 -47 -80
-62 -231 -32 -333 9 -30 33 -87 54 -126 l39 -73 -269 0 -270 0 0 295 c0 162 2
295 5 295 2 0 22 -9 42 -20 96 -50 215 -44 319 15 32 19 62 34 65 34 3 1 18
-13 34 -29z"/>
<path d="M1297 1655 c-20 -14 -37 -32 -37 -40 0 -8 -6 -15 -14 -15 -7 0 -19
-6 -25 -13 -8 -11 -5 -19 13 -36 l24 -22 20 28 c11 15 22 26 24 23 2 -3 16
-20 32 -37 29 -32 29 -33 11 -53 -10 -11 -26 -20 -36 -20 -22 0 -49 -26 -49
-47 0 -14 2 -14 18 1 18 15 20 15 37 -4 18 -20 18 -21 -1 -34 -28 -21 -9 -32
21 -12 15 10 25 26 25 40 0 12 9 31 20 41 20 18 22 18 75 -35 54 -53 55 -53
75 -35 l21 19 -51 51 c-27 28 -50 55 -50 61 0 17 35 44 56 44 25 0 44 19 44
44 0 19 -1 19 -20 1 -19 -17 -22 -18 -37 -2 -16 15 -15 18 2 37 16 17 16 20 2
20 -20 0 -47 -27 -47 -48 0 -8 -10 -26 -21 -38 l-22 -23 -38 32 c-35 30 -36
33 -22 49 9 10 25 18 36 18 16 0 17 3 7 15 -18 22 -50 18 -93 -10z"/>
<path d="M1686 1685 c-3 -9 -6 -22 -5 -28 0 -7 5 -1 10 12 5 13 8 26 5 28 -2
2 -6 -3 -10 -12z"/>
<path d="M1666 1609 c-10 -51 -7 -102 10 -158 8 -29 17 -51 19 -49 2 2 -3 26
-11 53 -11 35 -14 70 -10 118 6 71 3 88 -8 36z"/>
<path d="M562 1365 c-12 -25 -20 -45 -17 -45 7 0 47 81 43 86 -3 2 -14 -17
-26 -41z"/>
<path d="M1700 1384 c0 -6 7 -19 16 -30 14 -18 14 -18 3 6 -14 31 -19 36 -19
24z"/>
<path d="M1751 1293 c12 -21 29 -45 37 -53 7 -8 0 9 -18 38 -17 28 -34 52 -37
52 -2 0 5 -17 18 -37z"/>
<path d="M516 1285 c-9 -14 -23 -37 -32 -52 l-16 -28 20 24 c24 29 55 81 49
81 -3 0 -12 -11 -21 -25z"/>
<path d="M1817 1185 c9 -19 18 -33 21 -31 4 5 -26 66 -33 66 -3 0 3 -16 12
-35z"/>
<path d="M443 1163 c-28 -63 -29 -173 -3 -242 63 -170 255 -311 563 -416 l138
-47 137 47 c279 95 449 208 537 359 30 51 60 156 44 156 -5 0 -9 -11 -9 -25 0
-39 -35 -120 -76 -176 -87 -119 -266 -228 -505 -308 l-126 -42 -137 46 c-282
93 -452 209 -535 365 -45 83 -53 176 -24 263 23 65 20 75 -4 20z"/>
<path d="M492 1157 c-12 -23 -17 -55 -17 -112 0 -68 4 -88 29 -136 53 -106
190 -221 344 -291 55 -25 262 -98 278 -98 2 0 4 151 4 335 l0 335 -310 -1
-310 -1 -18 -31z m616 -296 l2 -301 -23 0 c-35 0 -157 44 -249 90 -156 78
-271 178 -319 278 -27 55 -36 145 -19 196 l11 35 102 3 c56 2 190 2 297 1
l195 -1 3 -301z"/>
<path d="M738 1108 c7 -7 12 -21 12 -32 0 -20 -1 -20 -16 2 -20 28 -49 31 -34
3 16 -30 12 -40 -12 -33 -22 5 -22 4 -6 -14 9 -10 18 -32 20 -49 2 -20 11 -33
26 -40 12 -5 22 -15 22 -22 0 -7 4 -13 8 -13 5 0 58 -58 118 -130 60 -71 114
-130 122 -130 32 0 18 38 -62 172 -47 79 -86 149 -86 156 0 7 -7 12 -15 12
-10 0 -15 10 -15 34 0 38 -47 96 -78 96 -12 0 -13 -3 -4 -12z m76 -113 l25
-25 -27 -18 c-47 -33 -58 -34 -23 -3 27 24 29 29 12 24 -17 -4 -21 -1 -21 21
0 32 3 32 34 1z m-50 -20 c15 -11 17 -18 8 -27 -13 -13 -42 6 -42 28 0 18 10
17 34 -1z"/>
<path d="M1150 854 l0 -334 28 6 c75 19 236 80 310 120 96 50 197 127 242 184
80 101 106 230 64 315 l-19 40 -312 2 -313 2 0 -335z m209 247 c10 -6 10 -13
2 -28 -12 -24 -78 -83 -91 -83 -10 0 -15 102 -6 111 9 8 81 8 95 0z m239 -3
c-2 -5 -75 -74 -163 -153 -104 -93 -163 -139 -167 -132 -23 35 -6 58 126 174
116 102 139 118 171 119 20 1 34 -3 33 -8z m-12 -191 c-55 -124 -127 -197
-196 -197 -20 0 -44 6 -53 13 -14 10 2 27 126 128 78 64 143 115 145 114 2 -1
-8 -28 -22 -58z"/>
<path d="M1847 1100 c3 -25 7 -47 9 -49 8 -9 2 55 -6 74 -6 13 -7 5 -3 -25z"/>
<path d="M237 904 c-4 -4 -7 -29 -7 -56 0 -56 -5 -58 -75 -27 -25 11 -49 18
-52 16 -12 -12 33 -71 99 -129 39 -35 85 -76 102 -91 l31 -29 12 30 c7 16 19
32 28 35 17 7 160 -9 178 -20 7 -3 3 3 -7 15 -10 12 -62 49 -115 81 -98 61
-148 105 -173 154 -8 15 -17 25 -21 21z"/>
<path d="M1987 847 c-33 -57 -95 -107 -217 -178 -50 -28 -90 -55 -90 -59 0
-11 66 8 113 32 53 27 78 21 100 -25 20 -44 23 -43 115 30 62 49 93 82 123
128 26 41 24 48 -8 31 -16 -7 -42 -17 -60 -21 -35 -7 -39 0 -45 75 l-3 35 -28
-48z"/>
<path d="M1773 617 c-40 -17 -70 -33 -68 -35 11 -11 96 11 124 32 49 36 24 38
-56 3z"/>
<path d="M400 632 c0 -10 82 -32 120 -32 24 0 26 15 4 24 -33 13 -124 19 -124
8z"/>
<path d="M361 587 c-7 -23 -22 -57 -32 -76 -11 -19 -16 -38 -12 -42 5 -5 53
-20 107 -33 113 -29 175 -56 292 -126 46 -28 119 -68 161 -88 l78 -37 172 0
173 0 222 113 c199 100 233 114 316 129 l94 18 -6 34 c-3 19 -17 58 -31 87
-26 52 -26 53 -45 34 -19 -19 -30 -22 -165 -54 -40 -9 -146 -53 -248 -102
-215 -103 -282 -122 -370 -106 -68 13 -178 62 -283 127 -94 59 -148 81 -277
115 -60 16 -114 34 -121 39 -10 8 -16 1 -25 -32z m181 -76 c-2 -23 -1 -24 16
-8 23 21 52 22 52 2 0 -27 -30 -75 -46 -75 -11 0 -14 5 -10 16 5 14 4 15 -8 5
-18 -15 -36 -6 -36 17 0 13 -2 13 -14 -4 -23 -31 -31 -7 -11 36 14 31 23 40
39 38 16 -2 20 -9 18 -27z m1202 7 c32 -45 14 -88 -35 -88 -30 0 -59 31 -59
62 0 27 25 22 38 -7 6 -14 18 -25 27 -25 14 0 14 4 1 34 -20 49 -1 65 28 24z
m-1061 -42 c16 -12 24 -36 11 -36 -3 0 -15 5 -27 11 -20 9 -20 9 -4 -4 23 -19
22 -31 -3 -24 -25 6 -26 -2 -3 -19 27 -19 8 -29 -27 -14 -32 13 -37 33 -18 75
12 28 42 33 71 11z m966 -30 c17 -44 10 -54 -29 -39 -29 11 -30 10 -24 -13 10
-39 -20 -29 -40 12 -21 46 -10 63 30 45 23 -10 26 -10 20 5 -3 8 -3 20 0 25
11 18 28 3 43 -35z m-899 -31 c0 -14 5 -25 10 -25 6 0 10 5 10 10 0 6 7 10 15
10 19 0 19 -14 -1 -56 -20 -43 -43 -44 -51 -3 -6 30 -7 31 -20 14 -9 -13 -16
-16 -24 -8 -15 15 20 83 43 83 13 0 18 -8 18 -25z m795 -27 c20 -23 23 -33 14
-39 -7 -4 -17 -5 -22 -2 -5 3 -19 -5 -32 -17 -27 -25 -29 -23 -39 41 -4 19 -3
38 1 42 16 17 53 5 78 -25z m-675 -20 c19 -12 49 -24 65 -26 17 -2 37 -10 45
-18 12 -12 11 -14 -15 -15 -17 -1 -22 -3 -12 -6 27 -7 20 -23 -10 -24 -28 0
-28 -1 -5 -11 47 -23 19 -37 -36 -17 l-32 11 15 35 c19 44 19 43 -5 43 -13 0
-24 -10 -30 -25 -6 -15 -17 -25 -30 -25 -24 0 -24 0 -5 36 9 19 11 32 5 38 -6
6 -10 14 -10 18 0 14 24 9 60 -14z m570 -10 c23 -39 25 -58 6 -58 -8 0 -17 6
-19 13 -3 6 -6 2 -6 -10 -1 -27 -19 -30 -37 -5 -10 13 -12 14 -11 2 1 -8 -2
-17 -7 -20 -13 -7 -49 56 -41 70 10 16 43 12 54 -7 9 -16 10 -14 11 9 0 22 7
31 28 37 1 1 11 -14 22 -31z m-180 -48 c0 -5 -5 -10 -11 -10 -8 0 -9 -13 -5
-40 5 -35 4 -40 -13 -40 -13 0 -21 9 -26 30 -5 21 -12 30 -27 30 -30 0 -16 24
18 31 46 10 64 10 64 -1z m-141 -6 c38 -8 41 -24 4 -25 -26 -1 -27 -1 -5 -7
33 -10 32 -26 -3 -33 l-30 -7 33 -1 c22 -1 32 -6 32 -17 0 -14 -7 -15 -37 -10
-21 3 -46 6 -56 6 -16 0 -18 5 -12 43 11 63 11 63 74 51z"/>
<path d="M1490 380 c0 -5 5 -10 10 -10 6 0 10 5 10 10 0 6 -4 10 -10 10 -5 0
-10 -4 -10 -10z"/>
</g>
</svg>
